<?xml version="1.0" encoding="utf-8"?>
<!-- Generator: Adobe Illustrator 24.3.0, SVG Export Plug-In . SVG Version: 6.00 Build 0)  -->
<svg version="1.1" xmlns="http://www.w3.org/2000/svg" xmlns:xlink="http://www.w3.org/1999/xlink" x="0px" y="0px"
	 viewBox="0 0 1440 1440" style="enable-background:new 0 0 1440 1440;" xml:space="preserve">
<style type="text/css">
	.st0{fill:#D3BEBE;stroke:#9E8686;stroke-width:40;stroke-miterlimit:10;}
	.st1{fill:#9E8686;}
	.st2{fill:#FFFFFF;stroke:#9E8686;stroke-width:30;stroke-miterlimit:10;}
	.st3{fill:#BDCCD4;}
	.st4{font-family:'MyriadPro-Regular';}
	.st5{font-size:150px;}
</style>
<g id="Слой_1">
	<circle class="st0" cx="720" cy="720" r="600"/>
	<g>
		<g>
			<path class="st1" d="M463.97,1093.93c31.21-16.26,63.06-31.24,95.48-44.92c-1.91,0.81-3.82,1.61-5.73,2.42
				c36.19-15.24,73.06-28.87,110.49-40.78c37.25-11.86,75.04-22.04,113.21-30.48c22.66-5.01,45.45-9.57,68.45-12.66
				c-2.13,0.29-4.25,0.57-6.38,0.86c28.74-3.8,57.93-5.18,86.75-1.36c-2.13-0.29-4.25-0.57-6.38-0.86
				c18.81,2.57,37.29,7.33,54.8,14.71c-1.91-0.81-3.82-1.61-5.73-2.42c13.28,5.68,25.86,12.84,37.31,21.66
				c-1.62-1.25-3.24-2.5-4.86-3.75c3.96,3.09,7.77,6.36,11.42,9.82c4.55,4.31,10.64,7.03,16.97,7.03c5.89,0,12.92-2.61,16.97-7.03
				c4.2-4.57,7.32-10.58,7.03-16.97c-0.28-6.26-2.36-12.55-7.03-16.97c-28.9-27.36-66.66-44.35-105.68-51.06
				c-21.68-3.73-43.6-5.09-65.57-4.1c-23.41,1.06-46.76,4.35-69.8,8.5c-40.47,7.3-80.56,17.05-120.06,28.44
				c-39.27,11.32-78,24.5-116.03,39.48c-39.62,15.6-78.58,32.94-116.57,52.19c-4.44,2.25-8.86,4.53-13.27,6.82
				c-11.15,5.81-15.4,22.31-8.61,32.84C438.45,1096.68,452.04,1100.14,463.97,1093.93L463.97,1093.93z"/>
		</g>
	</g>
	<ellipse class="st2" cx="507" cy="566.5" rx="169" ry="205.5"/>
	<ellipse class="st2" cx="944" cy="513.5" rx="169" ry="205.5"/>
</g>
<g id="Слой_2">
	<text transform="matrix(0.8703 -0.4926 0.4926 0.8703 430.2239 655.2261)" class="st3 st4 st5">404</text>
	<text transform="matrix(0.8703 -0.4926 0.4926 0.8703 877.7488 614.918)" class="st3 st4 st5">404</text>
</g>
</svg>
