<?xml version="1.0" encoding="utf-8"?>
<!-- Generator: Adobe Illustrator 24.3.0, SVG Export Plug-In . SVG Version: 6.00 Build 0)  -->
<svg version="1.1" xmlns="http://www.w3.org/2000/svg" xmlns:xlink="http://www.w3.org/1999/xlink" x="0px" y="0px"
	 viewBox="0 0 1440 1440" style="enable-background:new 0 0 1440 1440;" xml:space="preserve">
<style type="text/css">
	.st0{fill:#FF5F5F;stroke:#AD4444;stroke-width:40;stroke-miterlimit:10;}
	.st1{fill:#FFFFFF;stroke:#AD4444;stroke-width:30;stroke-miterlimit:10;}
	.st2{fill:#FFFFFF;stroke:#AD4444;stroke-width:40;stroke-miterlimit:10;}
	.st3{fill:none;stroke:#AD4444;stroke-width:30;stroke-linecap:round;stroke-miterlimit:10;}
	.st4{fill:none;stroke:#AD4444;stroke-width:12;stroke-miterlimit:10;}
	.st5{fill:#BDCCD4;}
</style>
<g id="Слой_1">
	<circle class="st0" cx="720" cy="720" r="600"/>
	<ellipse class="st1" cx="472" cy="566.5" rx="169" ry="205.5"/>
	<ellipse class="st1" cx="956" cy="566.5" rx="169" ry="205.5"/>
	<path class="st2" d="M875.5,1119h-312c-58.02,0-105.5-47.47-105.5-105.5v0c0-58.02,47.47-105.5,105.5-105.5h312
		c58.02,0,105.5,47.47,105.5,105.5v0C981,1071.53,933.53,1119,875.5,1119z"/>
	<line class="st3" x1="490" y1="244.09" x2="661.7" y2="340"/>
	<line class="st3" x1="787.13" y1="347.51" x2="950" y2="237.27"/>
	<line class="st4" x1="566" y1="925" x2="566" y2="1103"/>
	<line class="st4" x1="896" y1="925" x2="896" y2="1103"/>
	<line class="st4" x1="676" y1="924" x2="676" y2="1102"/>
	<line class="st4" x1="786" y1="924" x2="786" y2="1102"/>
</g>
<g id="Слой_2">
	<circle class="st5" cx="516" cy="566" r="60"/>
	<circle class="st5" cx="956" cy="545" r="60"/>
</g>
</svg>
