<svg id="Слой_1" data-name="Слой 1" xmlns="http://www.w3.org/2000/svg" viewBox="0 0 1343 1225.8712"><defs><style>.cls-1{fill:#ff5050;}.cls-2,.cls-3{fill:#fff;}.cls-3{stroke:#000;stroke-miterlimit:10;stroke-width:15px;}</style></defs><rect class="cls-1" width="1343" height="535" rx="66.8478"/><path class="cls-2" d="M366.51,160.2373,355.459,329.7725q-9.9741-1.6173-42.3164-4.5821-19.4062-.8085-45.82-1.0781L262.74,410.9014q27.7573.5434,85.711-4.043-2.6968,12.1289-8.3555,39.8906-2.9693,16.4436-6.4687,39.6211-7.5485-1.6172-34.77-4.8515a372.5365,372.5365,0,0,0-39.8906-1.0782l-2.1563,93.7969H105.6035L97.248,362.9248q-2.1606-72.7734-12.1289-202.6875Z" transform="translate(-49 -108)"/><path class="cls-2" d="M748.4355,315.2178q0,49.5958-27.7617,87.8672-24.5288,33.4241-61.4531,47.9765,7.815,12.129,38.543,50.9414,15.3633,17.7891,46.8984,46.8985-12.6723,4.5864-55.793,23.18-30.1888,13.746-56.8711,26.9531-7.8207-9.7032-34.7695-50.1328-12.4-20.48-36.3867-69h-.5391l-2.6953,94.3359H405.8613q-2.9693-58.7556-8.3554-193.793-2.4258-79.5072-11.0508-220.207,74.12-7.8142,135.3047-7.8164Q748.4311,152.4209,748.4355,315.2178ZM626.0684,373.4365q0-25.6032-21.5625-36.6562-15.9067-8.0861-39.8907-7.0078l-1.6172,92.18q22.37,0,39.8907-9.9726Q626.0668,399.042,626.0684,373.4365Z" transform="translate(-49 -108)"/><path class="cls-2" d="M1047.3457,160.2373l-11.59,170.6133q-9.9743-1.6172-43.125-5.66-22.6407-2.154-49.5938-2.6953l-4.043,51.4805q29.647.8085,96.7618-1.3477-2.9693,9.9749-9.4336,37.1953-3.7779,16.4436-6.7383,38.0039-7.8208-1.8822-39.082-4.8515-14.5548-.8086-43.125-.5391l-2.6954,60.1055q20.2149-.2652,74.3907-3.5039,10.2406-.8086,33.6914-6.4688-2.1608,8.3577-9.9727,40.16-3.7777,16.4436-9.164,41.5078h-241.23L774.58,362.9248q-2.1608-72.5018-10.5117-202.6875Z" transform="translate(-49 -108)"/><path class="cls-2" d="M1353.8027,160.2373l-11.59,170.6133q-9.9741-1.6172-43.125-5.66-22.6407-2.154-49.5938-2.6953l-4.0429,51.4805q29.6469.8085,96.7617-1.3477-2.9692,9.9749-9.4336,37.1953-3.7779,16.4436-6.7383,38.0039-7.8208-1.8822-39.082-4.8515-14.5546-.8086-43.125-.5391l-2.6953,60.1055q20.2148-.2652,74.3906-3.5039,10.2406-.8086,33.6914-6.4688-2.1606,8.3577-9.9727,40.16-3.7778,16.4436-9.164,41.5078H1088.8535l-7.8164-211.3125q-2.1606-72.5018-10.5117-202.6875Z" transform="translate(-49 -108)"/><path class="cls-3" d="M429.58,1019.665q0,66.3048-24.2578,119.9414-25.875,57.41-72.2344,80.59,9.9683,9.9741,28.0312,26.4141,24.7955,18.8627,43.6641,28.57-9.9741,9.9683-33.1523,29.3789-13.2086,9.16-36.3868,20.4843-19.141-15.3631-31.5351-30.996-14.5546-18.8686-20.7539-32.6133,5.9253-5.3951,18.0586-23.18-26.146,11.0493-52.2891,11.0508-82.7475,0-133.957-69.5391-48.25-65.2251-48.2461-160.1016,0-102.1479,52.5586-159.832,49.3242-54.1758,129.6445-54.1758,78.6987,0,128.2969,54.7149Q429.58,918.3257,429.58,1019.665Zm-129.6446,48.5157q0-74.9283-49.5937-74.93-26.6837,0-39.8906,22.3711Q198.86,1035.2993,199.94,1068.72q1.3461,30.9976,13.4765,56.3321,14.2837,29.38,35.3086,29.3789,20.7525,0,36.6563-29.918Q299.9356,1097.2915,299.9355,1068.1807Z" transform="translate(-49 -108)"/><path class="cls-3" d="M815.01,822.6377l-6.1993,174.3867q-2.6967,74.6616-2.6953,225.8672A413.1612,413.1612,0,0,1,665.42,1247.6885q-88.4077,0-134.4961-35.3086Q491.84,1182.462,475.67,1119.1221q-9.438-36.3867-17.789-133.1485-8.086-89.4828-9.9727-163.3359H621.7559q-1.3521,35.5781-3.2344,115.8984-.8086,44.7436.539,126.9493.2652,62.5326,10.7813,84.3632,11.0493,23.1841,44.2031,23.18,9.4321,0,21.0235-5.3906,0-55.522-3.2344-176.543-2.6968-60.6446-9.9727-168.457Z" transform="translate(-49 -108)"/><path class="cls-3" d="M1024.166,822.6377l-10.5117,220.207q-2.9692,71.1563-7.0078,193.793H855.44l-18.3282-414Z" transform="translate(-49 -108)"/><path class="cls-3" d="M1377.5215,822.6377,1229.01,1154.4307q24.2577,1.6172,76.8164-3.7735,12.1289-1.3461,33.4218-7.2773-4.043,12.1289-13.746,42.0469-5.3937,16.98-14.2852,51.2109H1067.83l72.7734-253.3594q-9.703.5435-36.9258,2.1563-19.9482,1.3519-54.7148,6.7383l-5.93-169.5352Z" transform="translate(-49 -108)"/></svg>